<?xml version="1.0" encoding="UTF-8"?>
<svg xmlns="http://www.w3.org/2000/svg" xmlns:xlink="http://www.w3.org/1999/xlink" width="225px" height="72px" viewBox="0 0 225 72" version="1.1">
<g id="surface1">
<path style=" stroke:none;fill-rule:nonzero;fill:rgb(100%,100%,100%);fill-opacity:1;" d="M 70.539062 36.289062 C 69.4375 36.921875 68.101562 37.421875 66.53125 37.789062 C 64.964844 38.15625 63.332031 38.339844 61.640625 38.339844 C 59.359375 38.339844 57.410156 38.0625 55.800781 37.515625 C 54.210938 36.964844 53.007812 36.199219 52.191406 35.21875 C 51.398438 34.242188 51 33.109375 51 31.828125 C 51 30.707031 51.304688 29.714844 51.917969 28.859375 C 52.527344 28.003906 53.375 27.34375 54.457031 26.871094 C 53.621094 26.445312 52.976562 25.855469 52.527344 25.097656 C 52.101562 24.324219 51.886719 23.480469 51.886719 22.5625 C 51.886719 21.378906 52.253906 20.300781 52.988281 19.320312 C 53.742188 18.34375 54.882812 17.558594 56.410156 16.964844 C 57.941406 16.375 59.828125 16.078125 62.070312 16.078125 C 63.476562 16.078125 64.863281 16.210938 66.226562 16.476562 C 67.59375 16.742188 68.796875 17.097656 69.835938 17.546875 L 68.183594 22.074219 C 66.289062 21.238281 64.332031 20.820312 62.3125 20.820312 C 60.867188 20.820312 59.785156 21.011719 59.074219 21.398438 C 58.359375 21.765625 58.003906 22.285156 58.003906 22.960938 C 58.003906 24.183594 58.890625 24.792969 60.664062 24.792969 L 66.714844 24.792969 L 66.714844 29.410156 L 60.265625 29.410156 C 59.226562 29.410156 58.441406 29.585938 57.910156 29.929688 C 57.378906 30.257812 57.117188 30.746094 57.117188 31.398438 C 57.117188 32.089844 57.503906 32.632812 58.277344 33.019531 C 59.050781 33.40625 60.253906 33.601562 61.886719 33.601562 C 63.046875 33.601562 64.238281 33.445312 65.460938 33.140625 C 66.707031 32.816406 67.785156 32.375 68.703125 31.828125 Z M 70.539062 36.289062 "/>
<path style=" stroke:none;fill-rule:nonzero;fill:rgb(100%,100%,100%);fill-opacity:1;" d="M 86.121094 29.226562 C 88.019531 29.859375 88.964844 31.164062 88.964844 33.140625 C 88.964844 34.628906 88.386719 35.800781 87.222656 36.65625 C 86.0625 37.492188 84.347656 37.910156 82.085938 37.910156 L 72.761719 37.910156 L 72.761719 21.339844 L 81.65625 21.339844 C 83.820312 21.339844 85.492188 21.714844 86.671875 22.46875 C 87.875 23.222656 88.476562 24.285156 88.476562 25.648438 C 88.476562 26.445312 88.273438 27.148438 87.867188 27.757812 C 87.457031 28.371094 86.875 28.859375 86.121094 29.226562 Z M 77.957031 28.003906 L 81.136719 28.003906 C 82.484375 28.003906 83.15625 27.503906 83.15625 26.507812 C 83.15625 25.546875 82.484375 25.070312 81.136719 25.070312 L 77.957031 25.070312 Z M 81.566406 34.148438 C 82.972656 34.148438 83.675781 33.640625 83.675781 32.621094 C 83.675781 31.601562 82.992188 31.09375 81.628906 31.09375 L 77.957031 31.09375 L 77.957031 34.148438 Z M 81.566406 34.148438 "/>
<path style=" stroke:none;fill-rule:nonzero;fill:rgb(100%,100%,100%);fill-opacity:1;" d="M 99.667969 32.011719 L 97.710938 32.011719 L 97.710938 37.910156 L 91.902344 37.910156 L 91.902344 21.339844 L 97.710938 21.339844 L 97.710938 27.453125 L 99.789062 27.453125 L 103.855469 21.339844 L 110.003906 21.339844 L 104.4375 29.289062 L 110.367188 37.910156 L 103.519531 37.910156 Z M 99.667969 32.011719 "/>
<path style=" stroke:none;fill-rule:nonzero;fill:rgb(100%,100%,100%);fill-opacity:1;" d="M 129.175781 21.339844 L 129.175781 37.910156 L 123.363281 37.910156 L 123.363281 25.957031 L 119.175781 25.957031 L 119.054688 28.492188 C 118.972656 30.65625 118.757812 32.4375 118.410156 33.84375 C 118.0625 35.25 117.492188 36.351562 116.699219 37.148438 C 115.902344 37.921875 114.8125 38.308594 113.425781 38.308594 C 112.714844 38.308594 111.773438 38.175781 110.613281 37.910156 L 110.859375 33.171875 C 111.226562 33.210938 111.46875 33.234375 111.59375 33.234375 C 112.222656 33.234375 112.703125 33.027344 113.027344 32.621094 C 113.355469 32.214844 113.578125 31.671875 113.703125 31 C 113.824219 30.308594 113.90625 29.390625 113.945312 28.25 L 114.191406 21.339844 Z M 129.175781 21.339844 "/>
<path style=" stroke:none;fill-rule:nonzero;fill:rgb(100%,100%,100%);fill-opacity:1;" d="M 150.140625 21.339844 L 150.140625 37.910156 L 144.605469 37.910156 L 144.605469 36.167969 C 143.992188 36.820312 143.261719 37.320312 142.402344 37.667969 C 141.566406 38.011719 140.671875 38.1875 139.714844 38.1875 C 137.550781 38.1875 135.828125 37.554688 134.546875 36.289062 C 133.28125 35.027344 132.648438 33.132812 132.648438 30.601562 L 132.648438 21.339844 L 138.460938 21.339844 L 138.460938 29.65625 C 138.460938 32.039062 139.386719 33.234375 141.242188 33.234375 C 142.160156 33.234375 142.902344 32.917969 143.472656 32.285156 C 144.046875 31.632812 144.328125 30.644531 144.328125 29.320312 L 144.328125 21.339844 Z M 150.140625 21.339844 "/>
<path style=" stroke:none;fill-rule:nonzero;fill:rgb(100%,100%,100%);fill-opacity:1;" d="M 171.683594 21.339844 L 171.683594 34.882812 C 171.683594 37.960938 170.847656 40.265625 169.175781 41.792969 C 167.503906 43.34375 165.097656 44.117188 161.960938 44.117188 C 160.328125 44.117188 158.800781 43.933594 157.371094 43.566406 C 155.945312 43.199219 154.734375 42.660156 153.734375 41.949219 L 155.84375 37.878906 C 156.515625 38.429688 157.363281 38.859375 158.382812 39.164062 C 159.421875 39.492188 160.441406 39.652344 161.4375 39.652344 C 162.96875 39.652344 164.089844 39.316406 164.804688 38.644531 C 165.515625 37.972656 165.871094 36.972656 165.871094 35.648438 L 165.871094 35.097656 C 164.753906 36.402344 163.109375 37.054688 160.949219 37.054688 C 159.480469 37.054688 158.128906 36.730469 156.882812 36.078125 C 155.640625 35.402344 154.652344 34.464844 153.917969 33.261719 C 153.183594 32.039062 152.816406 30.632812 152.816406 29.042969 C 152.816406 27.472656 153.183594 26.089844 153.917969 24.886719 C 154.652344 23.664062 155.640625 22.726562 156.882812 22.074219 C 158.128906 21.398438 159.480469 21.0625 160.949219 21.0625 C 163.316406 21.0625 165.046875 21.828125 166.148438 23.355469 L 166.148438 21.339844 Z M 162.324219 32.4375 C 163.367188 32.4375 164.222656 32.121094 164.894531 31.488281 C 165.585938 30.859375 165.933594 30.042969 165.933594 29.042969 C 165.933594 28.046875 165.597656 27.238281 164.925781 26.628906 C 164.253906 25.996094 163.386719 25.679688 162.324219 25.679688 C 161.265625 25.679688 160.390625 25.996094 159.695312 26.628906 C 159.023438 27.238281 158.6875 28.046875 158.6875 29.042969 C 158.6875 30.042969 159.035156 30.859375 159.726562 31.488281 C 160.421875 32.121094 161.285156 32.4375 162.324219 32.4375 Z M 162.324219 32.4375 "/>
<path style=" stroke:none;fill-rule:nonzero;fill:rgb(100%,100%,100%);fill-opacity:1;" d="M 60.425781 46.011719 L 60.425781 55.988281 L 57.632812 55.988281 L 57.632812 48.246094 L 53.839844 48.246094 L 53.839844 55.988281 L 51.058594 55.988281 L 51.058594 46.011719 Z M 60.425781 46.011719 "/>
<path style=" stroke:none;fill-rule:nonzero;fill:rgb(100%,100%,100%);fill-opacity:1;" d="M 66.535156 48.132812 C 67.382812 48.132812 68.117188 48.296875 68.746094 48.617188 C 69.375 48.941406 69.851562 49.40625 70.1875 50.015625 C 70.527344 50.613281 70.699219 51.316406 70.699219 52.125 C 70.699219 52.921875 70.542969 53.628906 70.226562 54.234375 C 69.914062 54.832031 69.472656 55.300781 68.902344 55.632812 C 68.332031 55.957031 67.671875 56.117188 66.921875 56.117188 C 66.039062 56.117188 65.34375 55.847656 64.839844 55.304688 L 64.839844 58.753906 L 62.132812 58.753906 L 62.132812 52.152344 C 62.132812 51.355469 62.3125 50.652344 62.671875 50.042969 C 63.035156 49.4375 63.546875 48.964844 64.210938 48.632812 C 64.878906 48.300781 65.652344 48.132812 66.535156 48.132812 Z M 66.40625 53.964844 C 66.894531 53.964844 67.28125 53.796875 67.578125 53.464844 C 67.882812 53.125 68.03125 52.675781 68.03125 52.125 C 68.03125 51.574219 67.882812 51.132812 67.578125 50.800781 C 67.28125 50.457031 66.894531 50.285156 66.40625 50.285156 C 65.921875 50.285156 65.535156 50.457031 65.238281 50.800781 C 64.945312 51.132812 64.796875 51.574219 64.796875 52.125 C 64.796875 52.6875 64.941406 53.132812 65.226562 53.464844 C 65.519531 53.796875 65.914062 53.964844 66.40625 53.964844 Z M 66.40625 53.964844 "/>
<path style=" stroke:none;fill-rule:nonzero;fill:rgb(100%,100%,100%);fill-opacity:1;" d="M 75.8125 56.117188 C 74.988281 56.117188 74.242188 55.945312 73.574219 55.605469 C 72.910156 55.261719 72.386719 54.785156 72.007812 54.179688 C 71.636719 53.570312 71.453125 52.882812 71.453125 52.109375 C 71.453125 51.351562 71.636719 50.667969 72.007812 50.058594 C 72.386719 49.449219 72.90625 48.980469 73.5625 48.648438 C 74.226562 48.304688 74.976562 48.132812 75.8125 48.132812 C 76.652344 48.132812 77.402344 48.304688 78.066406 48.648438 C 78.730469 48.980469 79.25 49.449219 79.621094 50.058594 C 79.992188 50.65625 80.175781 51.339844 80.175781 52.109375 C 80.175781 52.882812 79.992188 53.570312 79.621094 54.179688 C 79.25 54.785156 78.730469 55.261719 78.066406 55.605469 C 77.402344 55.945312 76.652344 56.117188 75.8125 56.117188 Z M 75.8125 53.964844 C 76.289062 53.964844 76.679688 53.804688 76.984375 53.480469 C 77.289062 53.148438 77.4375 52.691406 77.4375 52.109375 C 77.4375 51.539062 77.289062 51.09375 76.984375 50.769531 C 76.679688 50.449219 76.289062 50.285156 75.8125 50.285156 C 75.339844 50.285156 74.949219 50.449219 74.644531 50.769531 C 74.339844 51.09375 74.1875 51.539062 74.1875 52.109375 C 74.1875 52.691406 74.339844 53.148438 74.644531 53.480469 C 74.949219 53.804688 75.339844 53.964844 75.8125 53.964844 Z M 75.8125 53.964844 "/>
<path style=" stroke:none;fill-rule:nonzero;fill:rgb(100%,100%,100%);fill-opacity:1;" d="M 85.539062 54.050781 C 85.910156 54.050781 86.226562 53.996094 86.492188 53.894531 C 86.769531 53.789062 87.042969 53.617188 87.320312 53.378906 L 88.730469 54.863281 C 88 55.699219 86.90625 56.117188 85.453125 56.117188 C 84.550781 56.117188 83.757812 55.945312 83.070312 55.605469 C 82.386719 55.261719 81.855469 54.785156 81.476562 54.179688 C 81.105469 53.570312 80.917969 52.882812 80.917969 52.109375 C 80.917969 51.351562 81.105469 50.671875 81.476562 50.074219 C 81.84375 49.464844 82.355469 48.988281 83 48.648438 C 83.65625 48.304688 84.386719 48.132812 85.195312 48.132812 C 85.945312 48.132812 86.628906 48.289062 87.25 48.605469 C 87.875 48.910156 88.375 49.359375 88.746094 49.957031 C 89.117188 50.546875 89.300781 51.25 89.300781 52.070312 L 83.785156 53.125 C 84.078125 53.742188 84.664062 54.050781 85.539062 54.050781 Z M 85.210938 50.058594 C 84.746094 50.058594 84.363281 50.207031 84.070312 50.5 C 83.773438 50.785156 83.609375 51.199219 83.570312 51.742188 L 86.707031 51.128906 C 86.613281 50.804688 86.429688 50.546875 86.164062 50.359375 C 85.898438 50.15625 85.582031 50.058594 85.210938 50.058594 Z M 85.210938 50.058594 "/>
<path style=" stroke:none;fill-rule:nonzero;fill:rgb(100%,100%,100%);fill-opacity:1;" d="M 94.214844 53.238281 L 93.300781 53.238281 L 93.300781 55.988281 L 90.59375 55.988281 L 90.59375 48.261719 L 93.300781 48.261719 L 93.300781 51.113281 L 94.269531 51.113281 L 96.167969 48.261719 L 99.03125 48.261719 L 96.4375 51.96875 L 99.203125 55.988281 L 96.011719 55.988281 Z M 94.214844 53.238281 "/>
<path style=" stroke:none;fill-rule:nonzero;fill:rgb(100%,100%,100%);fill-opacity:1;" d="M 110.164062 48.132812 C 111.117188 48.132812 111.871094 48.417969 112.433594 48.988281 C 113.003906 49.558594 113.285156 50.417969 113.285156 51.570312 L 113.285156 55.988281 L 110.578125 55.988281 L 110.578125 52.011719 C 110.578125 51.46875 110.472656 51.070312 110.265625 50.8125 C 110.066406 50.558594 109.78125 50.429688 109.410156 50.429688 C 109 50.429688 108.671875 50.570312 108.425781 50.855469 C 108.179688 51.140625 108.054688 51.574219 108.054688 52.152344 L 108.054688 55.988281 L 105.347656 55.988281 L 105.347656 52.011719 C 105.347656 50.957031 104.957031 50.429688 104.179688 50.429688 C 103.761719 50.429688 103.425781 50.570312 103.179688 50.855469 C 102.933594 51.140625 102.808594 51.574219 102.808594 52.152344 L 102.808594 55.988281 L 100.101562 55.988281 L 100.101562 48.261719 L 102.679688 48.261719 L 102.679688 49.074219 C 102.964844 48.761719 103.304688 48.527344 103.691406 48.375 C 104.09375 48.214844 104.523438 48.132812 104.992188 48.132812 C 105.53125 48.132812 106.015625 48.234375 106.445312 48.433594 C 106.871094 48.632812 107.21875 48.9375 107.484375 49.34375 C 107.789062 48.957031 108.175781 48.65625 108.640625 48.449219 C 109.105469 48.238281 109.613281 48.132812 110.164062 48.132812 Z M 110.164062 48.132812 "/>
<path style=" stroke:none;fill-rule:nonzero;fill:rgb(100%,100%,100%);fill-opacity:1;" d="M 114.925781 48.261719 L 117.621094 48.261719 L 117.621094 51.128906 L 120.402344 51.128906 L 120.402344 48.261719 L 123.109375 48.261719 L 123.109375 55.988281 L 120.402344 55.988281 L 120.402344 53.28125 L 117.621094 53.28125 L 117.621094 55.988281 L 114.925781 55.988281 Z M 114.925781 48.261719 "/>
<path style=" stroke:none;fill-rule:nonzero;fill:rgb(100%,100%,100%);fill-opacity:1;" d="M 128.613281 56.214844 C 126.058594 56.214844 124.78125 55.117188 124.78125 52.921875 L 124.78125 48.261719 L 127.472656 48.261719 L 127.472656 50.714844 C 127.675781 50.582031 127.941406 50.472656 128.273438 50.386719 C 128.613281 50.300781 129.003906 50.257812 129.441406 50.257812 C 130.390625 50.257812 131.136719 50.5 131.679688 50.984375 C 132.222656 51.460938 132.492188 52.167969 132.492188 53.109375 C 132.492188 54.125 132.140625 54.902344 131.4375 55.433594 C 130.742188 55.957031 129.800781 56.214844 128.613281 56.214844 Z M 133.132812 48.261719 L 135.84375 48.261719 L 135.84375 55.988281 L 133.132812 55.988281 Z M 128.613281 54.363281 C 128.984375 54.363281 129.265625 54.253906 129.457031 54.035156 C 129.644531 53.816406 129.742188 53.527344 129.742188 53.167969 C 129.742188 52.8125 129.644531 52.539062 129.457031 52.339844 C 129.265625 52.140625 128.988281 52.039062 128.628906 52.039062 C 128.371094 52.039062 128.144531 52.085938 127.945312 52.183594 C 127.746094 52.277344 127.589844 52.40625 127.472656 52.566406 L 127.472656 53.167969 C 127.472656 53.535156 127.570312 53.832031 127.757812 54.050781 C 127.949219 54.257812 128.234375 54.363281 128.613281 54.363281 Z M 128.613281 54.363281 "/>
<path style=" stroke:none;fill-rule:nonzero;fill:rgb(100%,100%,100%);fill-opacity:1;" d="M 141.753906 54.050781 C 142.121094 54.050781 142.441406 53.996094 142.707031 53.894531 C 142.984375 53.789062 143.257812 53.617188 143.535156 53.378906 L 144.945312 54.863281 C 144.214844 55.699219 143.121094 56.117188 141.664062 56.117188 C 140.765625 56.117188 139.96875 55.945312 139.285156 55.605469 C 138.601562 55.261719 138.070312 54.785156 137.6875 54.179688 C 137.320312 53.570312 137.132812 52.882812 137.132812 52.109375 C 137.132812 51.351562 137.320312 50.671875 137.6875 50.074219 C 138.058594 49.464844 138.566406 48.988281 139.214844 48.648438 C 139.871094 48.304688 140.601562 48.132812 141.410156 48.132812 C 142.160156 48.132812 142.84375 48.289062 143.464844 48.605469 C 144.089844 48.910156 144.589844 49.359375 144.960938 49.957031 C 145.328125 50.546875 145.515625 51.25 145.515625 52.070312 L 140 53.125 C 140.292969 53.742188 140.878906 54.050781 141.753906 54.050781 Z M 141.425781 50.058594 C 140.957031 50.058594 140.578125 50.207031 140.285156 50.5 C 139.988281 50.785156 139.824219 51.199219 139.785156 51.742188 L 142.921875 51.128906 C 142.824219 50.804688 142.644531 50.546875 142.378906 50.359375 C 142.113281 50.15625 141.796875 50.058594 141.425781 50.058594 Z M 141.425781 50.058594 "/>
<path style=" stroke:none;fill-rule:nonzero;fill:rgb(100%,100%,100%);fill-opacity:1;" d="M 154.832031 56.117188 C 153.976562 56.117188 153.214844 55.945312 152.539062 55.605469 C 151.863281 55.261719 151.335938 54.785156 150.953125 54.179688 C 150.585938 53.570312 150.398438 52.882812 150.398438 52.109375 C 150.398438 51.339844 150.585938 50.65625 150.953125 50.058594 C 151.335938 49.449219 151.863281 48.980469 152.539062 48.648438 C 153.214844 48.304688 153.976562 48.132812 154.832031 48.132812 C 155.707031 48.132812 156.464844 48.324219 157.101562 48.703125 C 157.734375 49.074219 158.1875 49.59375 158.453125 50.257812 L 156.359375 51.328125 C 156.007812 50.632812 155.492188 50.285156 154.820312 50.285156 C 154.335938 50.285156 153.929688 50.449219 153.605469 50.769531 C 153.292969 51.09375 153.136719 51.539062 153.136719 52.109375 C 153.136719 52.691406 153.292969 53.148438 153.605469 53.480469 C 153.929688 53.804688 154.335938 53.964844 154.820312 53.964844 C 155.492188 53.964844 156.007812 53.617188 156.359375 52.921875 L 158.453125 53.992188 C 158.1875 54.65625 157.734375 55.179688 157.101562 55.5625 C 156.464844 55.929688 155.707031 56.117188 154.832031 56.117188 Z M 154.832031 56.117188 "/>
<path style=" stroke:none;fill-rule:nonzero;fill:rgb(100%,100%,100%);fill-opacity:1;" d="M 167.539062 48.261719 L 167.539062 55.988281 L 164.960938 55.988281 L 164.960938 55.175781 C 164.675781 55.480469 164.335938 55.714844 163.933594 55.875 C 163.546875 56.035156 163.128906 56.117188 162.679688 56.117188 C 161.671875 56.117188 160.871094 55.824219 160.269531 55.234375 C 159.683594 54.644531 159.386719 53.761719 159.386719 52.582031 L 159.386719 48.261719 L 162.097656 48.261719 L 162.097656 52.140625 C 162.097656 53.25 162.527344 53.808594 163.394531 53.808594 C 163.820312 53.808594 164.167969 53.660156 164.433594 53.367188 C 164.699219 53.0625 164.832031 52.601562 164.832031 51.984375 L 164.832031 48.261719 Z M 167.539062 48.261719 "/>
<path style=" stroke:none;fill-rule:nonzero;fill:rgb(100%,100%,100%);fill-opacity:1;" d="M 173.238281 56.117188 C 172.382812 56.117188 171.617188 55.945312 170.941406 55.605469 C 170.265625 55.261719 169.738281 54.785156 169.359375 54.179688 C 168.988281 53.570312 168.804688 52.882812 168.804688 52.109375 C 168.804688 51.339844 168.988281 50.65625 169.359375 50.058594 C 169.738281 49.449219 170.265625 48.980469 170.941406 48.648438 C 171.617188 48.304688 172.382812 48.132812 173.238281 48.132812 C 174.109375 48.132812 174.867188 48.324219 175.503906 48.703125 C 176.140625 49.074219 176.59375 49.59375 176.859375 50.257812 L 174.761719 51.328125 C 174.410156 50.632812 173.898438 50.285156 173.222656 50.285156 C 172.738281 50.285156 172.335938 50.449219 172.011719 50.769531 C 171.695312 51.09375 171.539062 51.539062 171.539062 52.109375 C 171.539062 52.691406 171.695312 53.148438 172.011719 53.480469 C 172.335938 53.804688 172.738281 53.964844 173.222656 53.964844 C 173.898438 53.964844 174.410156 53.617188 174.761719 52.921875 L 176.859375 53.992188 C 176.59375 54.65625 176.140625 55.179688 175.503906 55.5625 C 174.867188 55.929688 174.109375 56.117188 173.238281 56.117188 Z M 173.238281 56.117188 "/>
<path style=" stroke:none;fill-rule:nonzero;fill:rgb(100%,100%,100%);fill-opacity:1;" d="M 188.054688 48.132812 C 189.003906 48.132812 189.761719 48.417969 190.320312 48.988281 C 190.890625 49.558594 191.175781 50.417969 191.175781 51.570312 L 191.175781 55.988281 L 188.46875 55.988281 L 188.46875 52.011719 C 188.46875 51.46875 188.363281 51.070312 188.15625 50.8125 C 187.953125 50.558594 187.671875 50.429688 187.300781 50.429688 C 186.890625 50.429688 186.5625 50.570312 186.316406 50.855469 C 186.070312 51.140625 185.945312 51.574219 185.945312 52.152344 L 185.945312 55.988281 L 183.238281 55.988281 L 183.238281 52.011719 C 183.238281 50.957031 182.847656 50.429688 182.066406 50.429688 C 181.648438 50.429688 181.316406 50.570312 181.070312 50.855469 C 180.824219 51.140625 180.699219 51.574219 180.699219 52.152344 L 180.699219 55.988281 L 177.992188 55.988281 L 177.992188 48.261719 L 180.570312 48.261719 L 180.570312 49.074219 C 180.855469 48.761719 181.191406 48.527344 181.582031 48.375 C 181.980469 48.214844 182.414062 48.132812 182.878906 48.132812 C 183.421875 48.132812 183.90625 48.234375 184.335938 48.433594 C 184.761719 48.632812 185.109375 48.9375 185.375 49.34375 C 185.679688 48.957031 186.0625 48.65625 186.53125 48.449219 C 186.996094 48.238281 187.503906 48.132812 188.054688 48.132812 Z M 188.054688 48.132812 "/>
<path style=" stroke:none;fill-rule:nonzero;fill:rgb(100%,100%,100%);fill-opacity:1;" d="M 196.90625 54.050781 C 197.277344 54.050781 197.597656 53.996094 197.863281 53.894531 C 198.140625 53.789062 198.414062 53.617188 198.691406 53.378906 L 200.101562 54.863281 C 199.367188 55.699219 198.277344 56.117188 196.820312 56.117188 C 195.921875 56.117188 195.125 55.945312 194.441406 55.605469 C 193.757812 55.261719 193.226562 54.785156 192.84375 54.179688 C 192.476562 53.570312 192.289062 52.882812 192.289062 52.109375 C 192.289062 51.351562 192.476562 50.671875 192.84375 50.074219 C 193.214844 49.464844 193.722656 48.988281 194.371094 48.648438 C 195.027344 48.304688 195.757812 48.132812 196.566406 48.132812 C 197.316406 48.132812 198 48.289062 198.617188 48.605469 C 199.246094 48.910156 199.746094 49.359375 200.113281 49.957031 C 200.484375 50.546875 200.671875 51.25 200.671875 52.070312 L 195.15625 53.125 C 195.449219 53.742188 196.035156 54.050781 196.90625 54.050781 Z M 196.578125 50.058594 C 196.113281 50.058594 195.734375 50.207031 195.441406 50.5 C 195.144531 50.785156 194.980469 51.199219 194.941406 51.742188 L 198.078125 51.128906 C 197.980469 50.804688 197.800781 50.546875 197.535156 50.359375 C 197.269531 50.15625 196.949219 50.058594 196.578125 50.058594 Z M 196.578125 50.058594 "/>
<path style=" stroke:none;fill-rule:nonzero;fill:rgb(100%,100%,100%);fill-opacity:1;" d="M 209.460938 55.988281 L 209.460938 51.925781 L 207.480469 55.304688 L 206.324219 55.304688 L 204.402344 51.867188 L 204.402344 55.988281 L 201.964844 55.988281 L 201.964844 48.261719 L 204.8125 48.261719 L 206.96875 52.296875 L 209.332031 48.261719 L 211.886719 48.261719 L 211.898438 55.988281 Z M 209.460938 55.988281 "/>
<path style=" stroke:none;fill-rule:nonzero;fill:rgb(100%,100%,100%);fill-opacity:1;" d="M 217.402344 56.214844 C 214.847656 56.214844 213.570312 55.117188 213.570312 52.921875 L 213.570312 48.261719 L 216.265625 48.261719 L 216.265625 50.714844 C 216.464844 50.582031 216.730469 50.472656 217.0625 50.386719 C 217.402344 50.300781 217.792969 50.257812 218.230469 50.257812 C 219.183594 50.257812 219.929688 50.5 220.46875 50.984375 C 221.011719 51.460938 221.28125 52.167969 221.28125 53.109375 C 221.28125 54.125 220.929688 54.902344 220.226562 55.433594 C 219.53125 55.957031 218.59375 56.214844 217.402344 56.214844 Z M 221.921875 48.261719 L 224.632812 48.261719 L 224.632812 55.988281 L 221.921875 55.988281 Z M 217.402344 54.363281 C 217.773438 54.363281 218.054688 54.253906 218.246094 54.035156 C 218.4375 53.816406 218.53125 53.527344 218.53125 53.167969 C 218.53125 52.8125 218.4375 52.539062 218.246094 52.339844 C 218.054688 52.140625 217.78125 52.039062 217.417969 52.039062 C 217.160156 52.039062 216.933594 52.085938 216.734375 52.183594 C 216.535156 52.277344 216.378906 52.40625 216.265625 52.566406 L 216.265625 53.167969 C 216.265625 53.535156 216.359375 53.832031 216.550781 54.050781 C 216.738281 54.257812 217.023438 54.363281 217.402344 54.363281 Z M 217.402344 54.363281 "/>
<path style=" stroke:none;fill-rule:nonzero;fill:rgb(100%,60%,0%);fill-opacity:1;" d="M 9.34375 42.714844 L 17.351562 24.277344 L 20.035156 24.277344 L 20.035156 29.492188 L 14.355469 42.714844 L 18.589844 42.714844 L 18.589844 40.339844 C 18.589844 39.761719 19.554688 39.71875 20.035156 39.769531 L 20.035156 47.054688 C 18.714844 47.054688 18.519531 46.605469 18.589844 46.382812 L 18.589844 44.316406 L 13.582031 44.316406 L 1.183594 72 L 0.71875 72 L 3.871094 62.445312 C 3.871094 62.445312 1.082031 61.359375 2.011719 59.035156 C 2.941406 56.710938 8.519531 44.316406 8.519531 44.316406 L 2.011719 44.316406 L 2.011719 42.714844 Z M 9.34375 42.714844 "/>
<path style=" stroke:none;fill-rule:nonzero;fill:rgb(100%,60%,0%);fill-opacity:1;" d="M 30.210938 42.714844 L 22.207031 24.277344 L 19.519531 24.277344 L 19.519531 29.492188 L 25.203125 42.714844 L 20.964844 42.714844 L 20.964844 40.339844 C 20.964844 39.761719 20.003906 39.71875 19.519531 39.769531 L 19.519531 47.054688 C 20.84375 47.054688 21.035156 46.605469 20.964844 46.382812 L 20.964844 44.316406 L 25.976562 44.316406 L 38.371094 72 L 38.835938 72 L 35.6875 62.445312 C 35.6875 62.445312 38.476562 61.359375 37.546875 59.035156 C 36.617188 56.710938 31.039062 44.316406 31.039062 44.316406 L 37.546875 44.316406 L 37.546875 42.714844 Z M 30.210938 42.714844 "/>
<path style=" stroke:none;fill-rule:evenodd;fill:rgb(100%,100%,100%);fill-opacity:1;" d="M 19.828125 21.589844 C 22.851562 21.589844 25.304688 19.136719 25.304688 16.113281 C 25.304688 13.089844 22.851562 10.640625 19.828125 10.640625 C 16.804688 10.640625 14.355469 13.089844 14.355469 16.113281 C 14.355469 19.136719 16.804688 21.589844 19.828125 21.589844 Z M 19.828125 24.585938 C 24.507812 24.585938 28.300781 20.792969 28.300781 16.113281 C 28.300781 11.4375 24.507812 7.644531 19.828125 7.644531 C 15.152344 7.644531 11.359375 11.4375 11.359375 16.113281 C 11.359375 20.792969 15.152344 24.585938 19.828125 24.585938 Z M 19.828125 24.585938 "/>
<path style=" stroke:none;fill-rule:nonzero;fill:rgb(100%,100%,100%);fill-opacity:1;" d="M 18.28125 0 L 21.378906 0 L 21.378906 8.160156 L 18.28125 8.160156 Z M 18.28125 0 "/>
</g>
</svg>
