<?xml version="1.0" encoding="utf-8"?><svg viewBox="0 0 59 59" xmlns="http://www.w3.org/2000/svg" xmlns:xlink="http://www.w3.org/1999/xlink"><style>:root>svg{display:none}:root>svg:target{display:block}</style><svg fill="none" viewBox="0 0 59 59" id="vk" xmlns="http://www.w3.org/2000/svg"><path d="M29.222 0C13.084 0 0 13.083 0 29.222c0 16.14 13.084 29.223 29.222 29.223 16.139 0 29.223-13.084 29.223-29.223S45.36 0 29.222 0zm14.823 32.383c1.362 1.33 2.803 2.582 4.026 4.05.542.65 1.052 1.32 1.441 2.076.555 1.077.054 2.258-.91 2.322l-5.987-.002c-1.546.128-2.776-.495-3.814-1.553-.828-.842-1.596-1.742-2.394-2.613-.326-.357-.669-.694-1.078-.959-.816-.53-1.525-.368-1.993.484-.476.868-.585 1.83-.63 2.795-.066 1.412-.491 1.78-1.908 1.847-3.026.142-5.898-.318-8.567-1.843-2.355-1.346-4.177-3.246-5.765-5.397-3.092-4.192-5.46-8.793-7.588-13.527-.48-1.066-.129-1.636 1.047-1.659 1.954-.037 3.908-.032 5.862-.001.795.012 1.321.467 1.627 1.218 1.056 2.598 2.35 5.07 3.972 7.362.433.61.874 1.219 1.502 1.65.694.476 1.222.318 1.55-.456.209-.492.299-1.018.344-1.545.156-1.807.174-3.612-.095-5.411-.167-1.126-.8-1.853-1.923-2.066-.571-.108-.488-.32-.21-.646.483-.565.935-.914 1.838-.914l6.765-.001c1.065.209 1.305.687 1.45 1.761l.005 7.517c-.012.416.209 1.647.955 1.92.598.196.993-.283 1.35-.662 1.622-1.72 2.778-3.752 3.813-5.855.457-.928.85-1.887 1.234-2.849.284-.71.727-1.06 1.529-1.048l6.514.007c.191 0 .386.002.576.035 1.098.188 1.399.66 1.06 1.731-.535 1.683-1.574 3.084-2.589 4.489-1.088 1.504-2.249 2.956-3.326 4.467-.99 1.381-.912 2.076.317 3.276z" fill="#CACACA"/></svg></svg>